<svg id="Capa_1" enable-background="new 0 0 512.003 512.003" height="512" viewBox="0 0 512.003 512.003" width="512" xmlns="http://www.w3.org/2000/svg"><g><g><path clip-rule="evenodd" d="m37.157 130.157c-2.183 28.198.028 54.501 6.123 78.428 51.419-13.321 99.664-5.572 137.903 19.911-4.167-20.816-4.535-41.944-1.077-62.816-19.275-13.774-41.669-23.956-66.613-30.008-23.358-5.629-48.954-7.637-76.336-5.515z" fill="#ff7b79" fill-rule="evenodd"/></g><g><path clip-rule="evenodd" d="m10.001 220.011c16.809 65.475 56.493 110.303 107.658 128.942 39.117 14.255 84.924 13.18 132.375-5.685-37.672-34.109-60.632-73.818-68.852-114.772-38.239-25.483-86.483-33.232-137.903-19.911-10.969 2.828-22.081 6.646-33.278 11.426z" fill="#ffbdbc" fill-rule="evenodd"/></g><g><path clip-rule="evenodd" d="m331.897 165.68c3.43 20.873 3.09 42-1.105 62.816 38.267-25.483 86.483-33.232 137.931-19.911 6.066-23.927 8.305-50.23 6.123-78.428-27.382-2.121-52.979-.113-76.336 5.515-24.972 6.052-47.366 16.234-66.613 30.008z" fill="#ff7b79" fill-rule="evenodd"/></g><g><path clip-rule="evenodd" d="m137.558 63.211c-12.416 24.436-20.352 48.788-24.066 72.461 24.944 6.053 47.338 16.234 66.613 30.008 3.855-23.333 12.472-46.327 25.851-68.218-19.416-14.114-42.292-25.766-68.398-34.251z" fill="#ffbdbc" fill-rule="evenodd"/></g><g><path clip-rule="evenodd" d="m306.046 97.461c13.379 21.891 21.996 44.885 25.851 68.218 19.247-13.774 41.64-23.956 66.613-30.008-3.713-23.673-11.65-48.024-24.094-72.461-26.078 8.486-48.953 20.138-68.37 34.251z" fill="#ffbdbc" fill-rule="evenodd"/></g><g><path clip-rule="evenodd" d="m117.659 348.953c-11.679 16.8-29.253 35.75-72.537 54.586 100.288 24.917 138.668 23.984 170.416-4.554 13.294-11.964 25.426-28.735 40.45-50.485-2.013-1.725-3.997-3.479-5.953-5.232-47.452 18.865-93.259 19.94-132.376 5.685z" fill="#d5ea79" fill-rule="evenodd"/></g><g><path clip-rule="evenodd" d="m255.987 348.5c15.052 21.75 27.184 38.521 40.478 50.485 31.747 28.537 70.128 29.471 170.416 4.554-43.313-18.836-60.887-37.786-72.537-54.586-39.117 14.255-84.953 13.18-132.404-5.685-1.928 1.754-3.912 3.507-5.953 5.232z" fill="#d5ea79" fill-rule="evenodd"/></g><g><path clip-rule="evenodd" d="m215.538 398.985c7.597 25.03 22.45 47.063 40.45 73.309 18.028-26.247 32.853-48.279 40.478-73.309-13.294-11.964-25.426-28.735-40.478-50.485-15.024 21.75-27.156 38.522-40.45 50.485z" fill="#eaf5bc" fill-rule="evenodd"/></g><g><path clip-rule="evenodd" d="m181.182 228.496c8.22 40.954 31.18 80.663 68.852 114.772 1.956 1.754 3.94 3.507 5.953 5.232 2.041-1.725 4.025-3.479 5.953-5.232 37.7-34.109 60.66-73.818 68.852-114.772 4.195-20.816 4.535-41.944 1.105-62.816-3.855-23.333-12.472-46.327-25.851-68.218-12.501-20.477-29.196-39.935-50.059-57.754-20.834 17.818-37.53 37.277-50.031 57.754-13.379 21.891-21.996 44.885-25.851 68.218-3.458 20.873-3.09 42 1.077 62.816z" fill="#ff7b79" fill-rule="evenodd"/></g><g><path clip-rule="evenodd" d="m330.792 228.496c-8.192 40.954-31.152 80.663-68.852 114.772 47.451 18.865 93.286 19.939 132.404 5.685 51.164-18.638 90.82-63.467 107.658-128.942-11.197-4.78-22.308-8.598-33.278-11.426-51.449-13.321-99.665-5.572-137.932 19.911z" fill="#ffbdbc" fill-rule="evenodd"/></g><g><path d="m511.687 222.499c1.228-4.78-1.216-9.742-5.754-11.683-8.466-3.62-16.919-6.705-25.345-9.276 4.754-22.743 6.177-46.966 4.227-72.156-.38-4.915-4.284-8.818-9.198-9.199-24.202-1.873-47.379-.651-69.124 3.536-4.463-21.74-12.23-43.574-23.166-65.05-2.234-4.388-7.33-6.499-12.015-4.968-22.961 7.495-43.939 17.473-62.516 29.706-12.403-18.322-27.909-35.576-46.313-51.305-3.742-3.197-9.252-3.197-12.994 0-18.4 15.725-33.903 32.975-46.304 51.292-18.581-12.232-39.563-22.205-62.527-29.694-4.687-1.526-9.784.585-12.016 4.978-10.92 21.492-18.675 43.323-23.134 65.041-21.744-4.187-44.921-5.409-69.124-3.535-4.914.38-8.818 4.285-9.198 9.199-1.954 25.235-.539 49.459 4.201 72.16-8.418 2.569-16.863 5.653-25.32 9.272-4.537 1.941-6.979 6.902-5.752 11.682 15.106 58.81 49.059 104.234 95.603 127.905 1.937.985 3.896 1.915 5.867 2.82-10.937 12.794-28.012 26.95-60.652 41.145-3.93 1.709-6.333 5.731-5.978 10.002.356 4.27 3.394 7.839 7.553 8.873 49.549 12.323 83.503 18.143 109.344 18.143 13.871 0 25.409-1.678 35.758-4.929 8.485-2.665 16.013-6.362 23.007-11.076 8.943 21.738 22.594 41.675 36.922 62.569 1.864 2.718 4.947 4.343 8.243 4.344h.004c3.294 0 6.378-1.623 8.243-4.338 14.321-20.85 27.965-40.745 36.944-62.564 10.373 6.99 21.961 11.77 36.036 14.18.572.098 1.14.145 1.7.145 4.781 0 9.011-3.441 9.845-8.313.933-5.443-2.725-10.612-8.168-11.544-26.705-4.574-42.378-19.615-65.233-51.234 21.193 6.641 42.299 9.972 62.749 9.972 18.14 0 35.758-2.628 52.463-7.843 9.408 12.298 22.898 25.826 47.031 39.458-4.283.961-8.342 1.84-12.206 2.642-5.408 1.123-8.882 6.416-7.759 11.824.98 4.722 5.141 7.969 9.781 7.969.673 0 1.357-.068 2.043-.211 11.415-2.37 24.444-5.377 39.832-9.192 4.16-1.032 7.2-4.6 7.558-8.871s-2.046-8.296-5.977-10.005c-32.689-14.216-49.754-28.365-60.666-41.144 1.971-.905 3.931-1.835 5.868-2.82 46.553-23.674 80.51-69.098 95.617-127.907zm-110.466-77.18c20.016-4.796 41.547-6.743 64.184-5.724.887 19.85-.532 38.933-4.217 56.956-17.505-3.675-34.836-5.061-51.848-4.088-23.537 1.347-45.58 7.108-65.792 17.139.438-5.147.673-10.315.673-15.498 0-7.935-.534-15.835-1.557-23.678 17.253-11.439 36.711-19.8 57.886-24.95.227-.047.452-.095.671-.157zm-31.904-69.778c8.23 17.545 14.161 35.251 17.714 52.834-17.277 4.969-33.479 11.961-48.366 20.923-4.182-16.75-10.698-33.111-19.401-48.832 15-9.944 31.772-18.301 50.053-24.925zm-226.651 0c18.281 6.618 35.051 14.971 50.052 24.911-8.706 15.724-15.224 32.088-19.407 48.842-14.877-8.96-31.07-15.951-48.339-20.919 3.55-17.568 9.474-35.275 17.694-52.834zm-96.07 64.054c46.895-2.115 89.025 8.476 122.714 30.829-1.023 7.844-1.557 15.744-1.557 23.681 0 5.178.234 10.341.672 15.483-20.205-10.022-42.241-15.778-65.773-17.124-17.022-.972-34.358.413-51.863 4.09-3.674-17.992-5.085-37.077-4.193-56.959zm-24.584 86.325c54.727-21.106 107.655-18.051 150.298 8.741 8.487 37.669 28.694 73.512 59.174 104.628-45.135 14.33-89.557 12.076-126.5-6.712-39.145-19.909-68.38-57.587-82.972-106.657zm159.806 181.456c-21.989 6.906-53.172 4.983-107.413-7.167 24.097-13.619 37.594-27.15 47.022-39.453 16.703 5.214 34.319 7.841 52.461 7.841 20.448 0 41.557-3.331 62.752-9.97-19.906 27.621-33.94 42.19-54.822 48.749zm103.139-5.508c-6.483 18.04-17.122 35.151-28.964 52.688-11.865-17.594-22.516-34.738-28.96-52.707 9.63-9.618 18.812-21.575 28.952-35.885 10.028 14.162 19.22 26.178 28.972 35.904zm-28.97-66.708c-44.073-40.234-68.234-90.034-68.234-141.056s24.161-100.822 68.234-141.057c44.073 40.234 68.235 90.034 68.235 141.057 0 51.022-24.162 100.822-68.235 141.056zm151.019-2.583c-36.952 18.791-81.379 21.043-126.511 6.705 30.471-31.108 50.674-66.941 59.164-104.6 36.334-22.841 80.15-28.428 126.192-16.523.125.037.245.083.373.115.083.021.165.028.247.047 7.786 2.039 15.633 4.559 23.519 7.6-14.593 49.065-43.833 86.748-82.984 106.656z"/><path d="m383.487 409.971c-5.522 0-10 4.477-10 10s4.478 10 10 10h.057c5.522 0 9.972-4.477 9.972-10s-4.507-10-10.029-10z"/></g></g></svg>